<?xml version="1.0" encoding="UTF-8"?>
<svg width="96" height="96" xmlns="http://www.w3.org/2000/svg">
<g transform="scale(4) translate(4,4)">
<!-- frame -->
<path fill="#435" d="M -2,-3 a 1,1,0,0,0,-1,1 l 0,20 a 1,1,0,0,0,1,1 l 20,0 a 1,1,0,0,0,1,-1 l 0,-20 a 1,1,0,0,0,-1,-1 z m 0,1 l 20,0 l 0,20 l -20,0 l 0,-20 z"/>
<!-- m -->
<path fill="#435" d="M 0,0 l 0,7 l 1,0 l 0,-6 l 2,0 l 0,6 l 1,0 l 0,-6 a 1,1,0,0,0,-1,-1 z m 5,0 l 0,1 l 1,0 l 0,6 l 1,0 l 0,-6 a 1,1,0,0,0,-1,-1 z"/>
<!-- o -->
<path fill="#435" d="M 10,0 a 1,1,0,0,0,-1,1 l 0,5 a 1,1,0,0,0,1,1 l 5,0 a 1,1,0,0,0,1,-1 l 0,-4 l -1,0 l 0,4 l -5,0 l 0,-5 l 6,0 a 1,1,0,0,0,-1,-1 z"/>
<!-- d -->
<path fill="#435" d="M 0,9 l 0,1 l 6,0 l 0,5 l -5,0 l 0,-4 l -1,0 l 0,5 l 6,0 a 1,1,0,0,0,1,-1 l 0,-5 a 1,1,0,0,0,-1,-1 z"/>
<!-- o -->
<path fill="#435" d="M 10,9 a 1,1,0,0,0,-1,1 l 0,5 a 1,1,0,0,0,1,1 l 5,0 a 1,1,0,0,0,1,-1 l 0,-4 l -1,0 l 0,4 l -5,0 l 0,-5 l 6,0 a 1,1,0,0,0,-1,-1 z"/>
</g>
</svg>
